<mxfile host="65bd71144e">
    <diagram id="lV6X63ghPcbZG04vqODa" name="Page-1">
        <mxGraphModel dx="778" dy="893" grid="1" gridSize="10" guides="1" tooltips="1" connect="1" arrows="1" fold="1" page="1" pageScale="1" pageWidth="850" pageHeight="1100" background="#ffffff" math="0" shadow="0">
            <root>
                <mxCell id="0"/>
                <mxCell id="1" parent="0"/>
                <mxCell id="14" value="Reservation service" style="rounded=1;whiteSpace=wrap;html=1;fontSize=18;verticalAlign=top;" vertex="1" parent="1">
                    <mxGeometry x="280" y="590" width="180" height="230" as="geometry"/>
                </mxCell>
                <mxCell id="15" value="Res. actor" style="ellipse;whiteSpace=wrap;html=1;aspect=fixed;fontSize=18;fillColor=#fff2cc;strokeColor=#d6b656;" vertex="1" parent="1">
                    <mxGeometry x="330" y="665" width="80" height="80" as="geometry"/>
                </mxCell>
                <mxCell id="16" value="Reservation service" style="rounded=1;whiteSpace=wrap;html=1;fontSize=18;verticalAlign=top;" vertex="1" parent="1">
                    <mxGeometry x="490" y="590" width="180" height="230" as="geometry"/>
                </mxCell>
                <mxCell id="17" value="Res. actor" style="ellipse;whiteSpace=wrap;html=1;aspect=fixed;fontSize=18;fillColor=#fff2cc;strokeColor=#d6b656;" vertex="1" parent="1">
                    <mxGeometry x="540" y="665" width="80" height="80" as="geometry"/>
                </mxCell>
                <mxCell id="7" value="Web node" style="rounded=1;whiteSpace=wrap;html=1;fontSize=18;verticalAlign=top;" vertex="1" parent="1">
                    <mxGeometry x="200" y="270" width="180" height="230" as="geometry"/>
                </mxCell>
                <mxCell id="18" style="edgeStyle=none;html=1;entryX=0.5;entryY=0;entryDx=0;entryDy=0;fontSize=18;" edge="1" parent="1" source="8" target="15">
                    <mxGeometry relative="1" as="geometry"/>
                </mxCell>
                <mxCell id="8" value="Req actor" style="ellipse;whiteSpace=wrap;html=1;aspect=fixed;fontSize=18;fillColor=#dae8fc;strokeColor=#6c8ebf;" vertex="1" parent="1">
                    <mxGeometry x="250" y="345" width="80" height="80" as="geometry"/>
                </mxCell>
                <mxCell id="9" value="Web node" style="rounded=1;whiteSpace=wrap;html=1;fontSize=18;verticalAlign=top;" vertex="1" parent="1">
                    <mxGeometry x="400" y="270" width="180" height="230" as="geometry"/>
                </mxCell>
                <mxCell id="19" style="edgeStyle=none;html=1;entryX=0.5;entryY=0;entryDx=0;entryDy=0;fontSize=18;" edge="1" parent="1" source="10" target="15">
                    <mxGeometry relative="1" as="geometry"/>
                </mxCell>
                <mxCell id="10" value="Req actor" style="ellipse;whiteSpace=wrap;html=1;aspect=fixed;fontSize=18;fillColor=#dae8fc;strokeColor=#6c8ebf;" vertex="1" parent="1">
                    <mxGeometry x="450" y="345" width="80" height="80" as="geometry"/>
                </mxCell>
                <mxCell id="11" value="Web node" style="rounded=1;whiteSpace=wrap;html=1;fontSize=18;verticalAlign=top;" vertex="1" parent="1">
                    <mxGeometry x="600" y="270" width="180" height="230" as="geometry"/>
                </mxCell>
                <mxCell id="20" style="edgeStyle=none;html=1;entryX=0.5;entryY=0;entryDx=0;entryDy=0;fontSize=18;" edge="1" parent="1" source="12" target="15">
                    <mxGeometry relative="1" as="geometry"/>
                </mxCell>
                <mxCell id="12" value="Req actor" style="ellipse;whiteSpace=wrap;html=1;aspect=fixed;fontSize=18;fillColor=#dae8fc;strokeColor=#6c8ebf;" vertex="1" parent="1">
                    <mxGeometry x="650" y="345" width="80" height="80" as="geometry"/>
                </mxCell>
            </root>
        </mxGraphModel>
    </diagram>
</mxfile>